# Vectary OBJ Export units=mm
mtllib Project Name.mtl
o 000_Sphere
g Sphere
usemtl Sphere material_5e9c4c8e-c6a9-4eaf-8cce-1b98188a3ef9
v 0.000 0.000 -0.000
v 12.500 2.447 -9.082
v 15.451 2.447 0.000
v 4.775 2.447 -14.695
v -4.775 2.447 -14.695
v -12.500 2.447 -9.082
v -15.451 2.447 -0.000
v -12.500 2.447 9.082
v -4.775 2.447 14.695
v 4.775 2.447 14.695
v 12.500 2.447 9.082
v 23.776 9.549 -17.275
v 29.389 9.549 0.000
v 9.082 9.549 -27.951
v -9.082 9.549 -27.951
v -23.776 9.549 -17.275
v -29.389 9.549 -0.000
v -23.776 9.549 17.275
v -9.082 9.549 27.951
v 9.082 9.549 27.951
v 23.776 9.549 17.275
v 32.725 20.611 -23.776
v 40.451 20.611 0.000
v 12.500 20.611 -38.471
v -12.500 20.611 -38.471
v -32.725 20.611 -23.776
v -40.451 20.611 -0.000
v -32.725 20.611 23.776
v -12.500 20.611 38.471
v 12.500 20.611 38.471
v 32.725 20.611 23.776
v 38.471 34.549 -27.951
v 47.553 34.549 0.000
v 14.695 34.549 -45.225
v -14.695 34.549 -45.225
v -38.471 34.549 -27.951
v -47.553 34.549 0.000
v -38.471 34.549 27.951
v -14.695 34.549 45.225
v 14.695 34.549 45.225
v 38.471 34.549 27.951
v 40.451 50.000 -29.389
v 50.000 50.000 0.000
v 15.451 50.000 -47.553
v -15.451 50.000 -47.553
v -40.451 50.000 -29.389
v -50.000 50.000 0.000
v -40.451 50.000 29.389
v -15.451 50.000 47.553
v 15.451 50.000 47.553
v 40.451 50.000 29.389
v 38.471 65.451 -27.951
v 47.553 65.451 0.000
v 14.695 65.451 -45.225
v -14.695 65.451 -45.225
v -38.471 65.451 -27.951
v -47.553 65.451 0.000
v -38.471 65.451 27.951
v -14.695 65.451 45.225
v 14.695 65.451 45.225
v 38.471 65.451 27.951
v 32.725 79.389 -23.776
v 40.451 79.389 0.000
v 12.500 79.389 -38.471
v -12.500 79.389 -38.471
v -32.725 79.389 -23.776
v -40.451 79.389 0.000
v -32.725 79.389 23.776
v -12.500 79.389 38.471
v 12.500 79.389 38.471
v 32.725 79.389 23.776
v 23.776 90.451 -17.275
v 29.389 90.451 0.000
v 9.082 90.451 -27.951
v -9.082 90.451 -27.951
v -23.776 90.451 -17.275
v -29.389 90.451 0.000
v -23.776 90.451 17.275
v -9.082 90.451 27.951
v 9.082 90.451 27.951
v 23.776 90.451 17.275
v 12.500 97.553 -9.082
v 15.451 97.553 0.000
v 4.775 97.553 -14.695
v -4.775 97.553 -14.695
v -12.500 97.553 -9.082
v -15.451 97.553 0.000
v -12.500 97.553 9.082
v -4.775 97.553 14.695
v 4.775 97.553 14.695
v 12.500 97.553 9.082
v 0.000 100.000 0.000
vn 0.00000 -1.00000 -0.00000
vn 0.25000 -0.95106 -0.18164
vn 0.30902 -0.95106 -0.00000
vn 0.00000 -1.00000 -0.00000
vn 0.09549 -0.95106 -0.29389
vn 0.25000 -0.95106 -0.18164
vn 0.00000 -1.00000 -0.00000
vn -0.09549 -0.95106 -0.29389
vn 0.09549 -0.95106 -0.29389
vn 0.00000 -1.00000 -0.00000
vn -0.25000 -0.95106 -0.18164
vn -0.09549 -0.95106 -0.29389
vn 0.00000 -1.00000 -0.00000
vn -0.30902 -0.95106 -0.00000
vn -0.25000 -0.95106 -0.18164
vn 0.00000 -1.00000 -0.00000
vn -0.25000 -0.95106 0.18164
vn -0.30902 -0.95106 -0.00000
vn 0.00000 -1.00000 -0.00000
vn -0.09549 -0.95106 0.29389
vn -0.25000 -0.95106 0.18164
vn 0.00000 -1.00000 -0.00000
vn 0.09549 -0.95106 0.29389
vn -0.09549 -0.95106 0.29389
vn 0.00000 -1.00000 -0.00000
vn 0.25000 -0.95106 0.18164
vn 0.09549 -0.95106 0.29389
vn 0.00000 -1.00000 -0.00000
vn 0.30902 -0.95106 -0.00000
vn 0.25000 -0.95106 0.18164
vn 0.30902 -0.95106 -0.00000
vn 0.25000 -0.95106 -0.18164
vn 0.47553 -0.80902 -0.34549
vn 0.58779 -0.80902 -0.00000
vn 0.25000 -0.95106 -0.18164
vn 0.09549 -0.95106 -0.29389
vn 0.18164 -0.80902 -0.55902
vn 0.47553 -0.80902 -0.34549
vn 0.09549 -0.95106 -0.29389
vn -0.09549 -0.95106 -0.29389
vn -0.18164 -0.80902 -0.55902
vn 0.18164 -0.80902 -0.55902
vn -0.09549 -0.95106 -0.29389
vn -0.25000 -0.95106 -0.18164
vn -0.47553 -0.80902 -0.34549
vn -0.18164 -0.80902 -0.55902
vn -0.25000 -0.95106 -0.18164
vn -0.30902 -0.95106 -0.00000
vn -0.58779 -0.80902 -0.00000
vn -0.47553 -0.80902 -0.34549
vn -0.30902 -0.95106 -0.00000
vn -0.25000 -0.95106 0.18164
vn -0.47553 -0.80902 0.34549
vn -0.58779 -0.80902 -0.00000
vn -0.25000 -0.95106 0.18164
vn -0.09549 -0.95106 0.29389
vn -0.18164 -0.80902 0.55902
vn -0.47553 -0.80902 0.34549
vn -0.09549 -0.95106 0.29389
vn 0.09549 -0.95106 0.29389
vn 0.18164 -0.80902 0.55902
vn -0.18164 -0.80902 0.55902
vn 0.09549 -0.95106 0.29389
vn 0.25000 -0.95106 0.18164
vn 0.47553 -0.80902 0.34549
vn 0.18164 -0.80902 0.55902
vn 0.25000 -0.95106 0.18164
vn 0.30902 -0.95106 -0.00000
vn 0.58779 -0.80902 -0.00000
vn 0.47553 -0.80902 0.34549
vn 0.58779 -0.80902 -0.00000
vn 0.47553 -0.80902 -0.34549
vn 0.65451 -0.58779 -0.47553
vn 0.80902 -0.58779 -0.00000
vn 0.47553 -0.80902 -0.34549
vn 0.18164 -0.80902 -0.55902
vn 0.25000 -0.58779 -0.76942
vn 0.65451 -0.58779 -0.47553
vn 0.18164 -0.80902 -0.55902
vn -0.18164 -0.80902 -0.55902
vn -0.25000 -0.58779 -0.76942
vn 0.25000 -0.58779 -0.76942
vn -0.18164 -0.80902 -0.55902
vn -0.47553 -0.80902 -0.34549
vn -0.65451 -0.58779 -0.47553
vn -0.25000 -0.58779 -0.76942
vn -0.47553 -0.80902 -0.34549
vn -0.58779 -0.80902 -0.00000
vn -0.80902 -0.58779 -0.00000
vn -0.65451 -0.58779 -0.47553
vn -0.58779 -0.80902 -0.00000
vn -0.47553 -0.80902 0.34549
vn -0.65451 -0.58779 0.47553
vn -0.80902 -0.58779 -0.00000
vn -0.47553 -0.80902 0.34549
vn -0.18164 -0.80902 0.55902
vn -0.25000 -0.58779 0.76942
vn -0.65451 -0.58779 0.47553
vn -0.18164 -0.80902 0.55902
vn 0.18164 -0.80902 0.55902
vn 0.25000 -0.58779 0.76942
vn -0.25000 -0.58779 0.76942
vn 0.18164 -0.80902 0.55902
vn 0.47553 -0.80902 0.34549
vn 0.65451 -0.58779 0.47553
vn 0.25000 -0.58779 0.76942
vn 0.47553 -0.80902 0.34549
vn 0.58779 -0.80902 -0.00000
vn 0.80902 -0.58779 -0.00000
vn 0.65451 -0.58779 0.47553
vn 0.80902 -0.58779 -0.00000
vn 0.65451 -0.58779 -0.47553
vn 0.76942 -0.30902 -0.55902
vn 0.95106 -0.30902 -0.00000
vn 0.65451 -0.58779 -0.47553
vn 0.25000 -0.58779 -0.76942
vn 0.29389 -0.30902 -0.90451
vn 0.76942 -0.30902 -0.55902
vn 0.25000 -0.58779 -0.76942
vn -0.25000 -0.58779 -0.76942
vn -0.29389 -0.30902 -0.90451
vn 0.29389 -0.30902 -0.90451
vn -0.25000 -0.58779 -0.76942
vn -0.65451 -0.58779 -0.47553
vn -0.76942 -0.30902 -0.55902
vn -0.29389 -0.30902 -0.90451
vn -0.65451 -0.58779 -0.47553
vn -0.80902 -0.58779 -0.00000
vn -0.95106 -0.30902 -0.00000
vn -0.76942 -0.30902 -0.55902
vn -0.80902 -0.58779 -0.00000
vn -0.65451 -0.58779 0.47553
vn -0.76942 -0.30902 0.55902
vn -0.95106 -0.30902 -0.00000
vn -0.65451 -0.58779 0.47553
vn -0.25000 -0.58779 0.76942
vn -0.29389 -0.30902 0.90451
vn -0.76942 -0.30902 0.55902
vn -0.25000 -0.58779 0.76942
vn 0.25000 -0.58779 0.76942
vn 0.29389 -0.30902 0.90451
vn -0.29389 -0.30902 0.90451
vn 0.25000 -0.58779 0.76942
vn 0.65451 -0.58779 0.47553
vn 0.76942 -0.30902 0.55902
vn 0.29389 -0.30902 0.90451
vn 0.65451 -0.58779 0.47553
vn 0.80902 -0.58779 -0.00000
vn 0.95106 -0.30902 -0.00000
vn 0.76942 -0.30902 0.55902
vn 0.95106 -0.30902 -0.00000
vn 0.76942 -0.30902 -0.55902
vn 0.80902 0.00000 -0.58779
vn 1.00000 0.00000 0.00000
vn 0.76942 -0.30902 -0.55902
vn 0.29389 -0.30902 -0.90451
vn 0.30902 0.00000 -0.95106
vn 0.80902 0.00000 -0.58779
vn 0.29389 -0.30902 -0.90451
vn -0.29389 -0.30902 -0.90451
vn -0.30902 0.00000 -0.95106
vn 0.30902 0.00000 -0.95106
vn -0.29389 -0.30902 -0.90451
vn -0.76942 -0.30902 -0.55902
vn -0.80902 0.00000 -0.58779
vn -0.30902 0.00000 -0.95106
vn -0.76942 -0.30902 -0.55902
vn -0.95106 -0.30902 -0.00000
vn -1.00000 0.00000 -0.00000
vn -0.80902 0.00000 -0.58779
vn -0.95106 -0.30902 -0.00000
vn -0.76942 -0.30902 0.55902
vn -0.80902 -0.00000 0.58779
vn -1.00000 0.00000 -0.00000
vn -0.76942 -0.30902 0.55902
vn -0.29389 -0.30902 0.90451
vn -0.30902 -0.00000 0.95106
vn -0.80902 -0.00000 0.58779
vn -0.29389 -0.30902 0.90451
vn 0.29389 -0.30902 0.90451
vn 0.30902 -0.00000 0.95106
vn -0.30902 -0.00000 0.95106
vn 0.29389 -0.30902 0.90451
vn 0.76942 -0.30902 0.55902
vn 0.80902 -0.00000 0.58779
vn 0.30902 -0.00000 0.95106
vn 0.76942 -0.30902 0.55902
vn 0.95106 -0.30902 -0.00000
vn 1.00000 0.00000 0.00000
vn 0.80902 -0.00000 0.58779
vn 1.00000 0.00000 0.00000
vn 0.80902 0.00000 -0.58779
vn 0.76942 0.30902 -0.55902
vn 0.95106 0.30902 0.00000
vn 0.80902 0.00000 -0.58779
vn 0.30902 0.00000 -0.95106
vn 0.29389 0.30902 -0.90451
vn 0.76942 0.30902 -0.55902
vn 0.30902 0.00000 -0.95106
vn -0.30902 0.00000 -0.95106
vn -0.29389 0.30902 -0.90451
vn 0.29389 0.30902 -0.90451
vn -0.30902 0.00000 -0.95106
vn -0.80902 0.00000 -0.58779
vn -0.76942 0.30902 -0.55902
vn -0.29389 0.30902 -0.90451
vn -0.80902 0.00000 -0.58779
vn -1.00000 0.00000 -0.00000
vn -0.95106 0.30902 -0.00000
vn -0.76942 0.30902 -0.55902
vn -1.00000 0.00000 -0.00000
vn -0.80902 -0.00000 0.58779
vn -0.76942 0.30902 0.55902
vn -0.95106 0.30902 -0.00000
vn -0.80902 -0.00000 0.58779
vn -0.30902 -0.00000 0.95106
vn -0.29389 0.30902 0.90451
vn -0.76942 0.30902 0.55902
vn -0.30902 -0.00000 0.95106
vn 0.30902 -0.00000 0.95106
vn 0.29389 0.30902 0.90451
vn -0.29389 0.30902 0.90451
vn 0.30902 -0.00000 0.95106
vn 0.80902 -0.00000 0.58779
vn 0.76942 0.30902 0.55902
vn 0.29389 0.30902 0.90451
vn 0.80902 -0.00000 0.58779
vn 1.00000 0.00000 0.00000
vn 0.95106 0.30902 0.00000
vn 0.76942 0.30902 0.55902
vn 0.95106 0.30902 0.00000
vn 0.76942 0.30902 -0.55902
vn 0.65451 0.58779 -0.47553
vn 0.80902 0.58779 0.00000
vn 0.76942 0.30902 -0.55902
vn 0.29389 0.30902 -0.90451
vn 0.25000 0.58779 -0.76942
vn 0.65451 0.58779 -0.47553
vn 0.29389 0.30902 -0.90451
vn -0.29389 0.30902 -0.90451
vn -0.25000 0.58779 -0.76942
vn 0.25000 0.58779 -0.76942
vn -0.29389 0.30902 -0.90451
vn -0.76942 0.30902 -0.55902
vn -0.65451 0.58779 -0.47553
vn -0.25000 0.58779 -0.76942
vn -0.76942 0.30902 -0.55902
vn -0.95106 0.30902 -0.00000
vn -0.80902 0.58779 0.00000
vn -0.65451 0.58779 -0.47553
vn -0.95106 0.30902 -0.00000
vn -0.76942 0.30902 0.55902
vn -0.65451 0.58779 0.47553
vn -0.80902 0.58779 0.00000
vn -0.76942 0.30902 0.55902
vn -0.29389 0.30902 0.90451
vn -0.25000 0.58779 0.76942
vn -0.65451 0.58779 0.47553
vn -0.29389 0.30902 0.90451
vn 0.29389 0.30902 0.90451
vn 0.25000 0.58779 0.76942
vn -0.25000 0.58779 0.76942
vn 0.29389 0.30902 0.90451
vn 0.76942 0.30902 0.55902
vn 0.65451 0.58779 0.47553
vn 0.25000 0.58779 0.76942
vn 0.76942 0.30902 0.55902
vn 0.95106 0.30902 0.00000
vn 0.80902 0.58779 0.00000
vn 0.65451 0.58779 0.47553
vn 0.80902 0.58779 0.00000
vn 0.65451 0.58779 -0.47553
vn 0.47553 0.80902 -0.34549
vn 0.58779 0.80902 0.00000
vn 0.65451 0.58779 -0.47553
vn 0.25000 0.58779 -0.76942
vn 0.18164 0.80902 -0.55902
vn 0.47553 0.80902 -0.34549
vn 0.25000 0.58779 -0.76942
vn -0.25000 0.58779 -0.76942
vn -0.18164 0.80902 -0.55902
vn 0.18164 0.80902 -0.55902
vn -0.25000 0.58779 -0.76942
vn -0.65451 0.58779 -0.47553
vn -0.47553 0.80902 -0.34549
vn -0.18164 0.80902 -0.55902
vn -0.65451 0.58779 -0.47553
vn -0.80902 0.58779 0.00000
vn -0.58779 0.80902 0.00000
vn -0.47553 0.80902 -0.34549
vn -0.80902 0.58779 0.00000
vn -0.65451 0.58779 0.47553
vn -0.47553 0.80902 0.34549
vn -0.58779 0.80902 0.00000
vn -0.65451 0.58779 0.47553
vn -0.25000 0.58779 0.76942
vn -0.18164 0.80902 0.55902
vn -0.47553 0.80902 0.34549
vn -0.25000 0.58779 0.76942
vn 0.25000 0.58779 0.76942
vn 0.18164 0.80902 0.55902
vn -0.18164 0.80902 0.55902
vn 0.25000 0.58779 0.76942
vn 0.65451 0.58779 0.47553
vn 0.47553 0.80902 0.34549
vn 0.18164 0.80902 0.55902
vn 0.65451 0.58779 0.47553
vn 0.80902 0.58779 0.00000
vn 0.58779 0.80902 0.00000
vn 0.47553 0.80902 0.34549
vn 0.58779 0.80902 0.00000
vn 0.47553 0.80902 -0.34549
vn 0.25000 0.95106 -0.18164
vn 0.30902 0.95106 0.00000
vn 0.47553 0.80902 -0.34549
vn 0.18164 0.80902 -0.55902
vn 0.09549 0.95106 -0.29389
vn 0.25000 0.95106 -0.18164
vn 0.18164 0.80902 -0.55902
vn -0.18164 0.80902 -0.55902
vn -0.09549 0.95106 -0.29389
vn 0.09549 0.95106 -0.29389
vn -0.18164 0.80902 -0.55902
vn -0.47553 0.80902 -0.34549
vn -0.25000 0.95106 -0.18164
vn -0.09549 0.95106 -0.29389
vn -0.47553 0.80902 -0.34549
vn -0.58779 0.80902 0.00000
vn -0.30902 0.95106 0.00000
vn -0.25000 0.95106 -0.18164
vn -0.58779 0.80902 0.00000
vn -0.47553 0.80902 0.34549
vn -0.25000 0.95106 0.18164
vn -0.30902 0.95106 0.00000
vn -0.47553 0.80902 0.34549
vn -0.18164 0.80902 0.55902
vn -0.09549 0.95106 0.29389
vn -0.25000 0.95106 0.18164
vn -0.18164 0.80902 0.55902
vn 0.18164 0.80902 0.55902
vn 0.09549 0.95106 0.29389
vn -0.09549 0.95106 0.29389
vn 0.18164 0.80902 0.55902
vn 0.47553 0.80902 0.34549
vn 0.25000 0.95106 0.18164
vn 0.09549 0.95106 0.29389
vn 0.47553 0.80902 0.34549
vn 0.58779 0.80902 0.00000
vn 0.30902 0.95106 0.00000
vn 0.25000 0.95106 0.18164
vn 0.30902 0.95106 0.00000
vn 0.25000 0.95106 -0.18164
vn 0.00000 1.00000 0.00000
vn 0.25000 0.95106 -0.18164
vn 0.09549 0.95106 -0.29389
vn 0.00000 1.00000 0.00000
vn 0.09549 0.95106 -0.29389
vn -0.09549 0.95106 -0.29389
vn 0.00000 1.00000 0.00000
vn -0.09549 0.95106 -0.29389
vn -0.25000 0.95106 -0.18164
vn 0.00000 1.00000 0.00000
vn -0.25000 0.95106 -0.18164
vn -0.30902 0.95106 0.00000
vn 0.00000 1.00000 0.00000
vn -0.30902 0.95106 0.00000
vn -0.25000 0.95106 0.18164
vn 0.00000 1.00000 0.00000
vn -0.25000 0.95106 0.18164
vn -0.09549 0.95106 0.29389
vn 0.00000 1.00000 0.00000
vn -0.09549 0.95106 0.29389
vn 0.09549 0.95106 0.29389
vn 0.00000 1.00000 0.00000
vn 0.09549 0.95106 0.29389
vn 0.25000 0.95106 0.18164
vn 0.00000 1.00000 0.00000
vn 0.25000 0.95106 0.18164
vn 0.30902 0.95106 0.00000
vn 0.00000 1.00000 0.00000
f 1//1 2//2 3//3 
f 1//4 4//5 2//6 
f 1//7 5//8 4//9 
f 1//10 6//11 5//12 
f 1//13 7//14 6//15 
f 1//16 8//17 7//18 
f 1//19 9//20 8//21 
f 1//22 10//23 9//24 
f 1//25 11//26 10//27 
f 1//28 3//29 11//30 
f 2//32 12//33 13//34 3//31 
f 4//36 14//37 12//38 2//35 
f 5//40 15//41 14//42 4//39 
f 6//44 16//45 15//46 5//43 
f 7//48 17//49 16//50 6//47 
f 8//52 18//53 17//54 7//51 
f 9//56 19//57 18//58 8//55 
f 10//60 20//61 19//62 9//59 
f 11//64 21//65 20//66 10//63 
f 3//68 13//69 21//70 11//67 
f 12//72 22//73 23//74 13//71 
f 14//76 24//77 22//78 12//75 
f 15//80 25//81 24//82 14//79 
f 16//84 26//85 25//86 15//83 
f 17//88 27//89 26//90 16//87 
f 18//92 28//93 27//94 17//91 
f 19//96 29//97 28//98 18//95 
f 20//100 30//101 29//102 19//99 
f 21//104 31//105 30//106 20//103 
f 13//108 23//109 31//110 21//107 
f 22//112 32//113 33//114 23//111 
f 24//116 34//117 32//118 22//115 
f 25//120 35//121 34//122 24//119 
f 26//124 36//125 35//126 25//123 
f 27//128 37//129 36//130 26//127 
f 28//132 38//133 37//134 27//131 
f 29//136 39//137 38//138 28//135 
f 30//140 40//141 39//142 29//139 
f 31//144 41//145 40//146 30//143 
f 23//148 33//149 41//150 31//147 
f 32//152 42//153 43//154 33//151 
f 34//156 44//157 42//158 32//155 
f 35//160 45//161 44//162 34//159 
f 36//164 46//165 45//166 35//163 
f 37//168 47//169 46//170 36//167 
f 38//172 48//173 47//174 37//171 
f 39//176 49//177 48//178 38//175 
f 40//180 50//181 49//182 39//179 
f 41//184 51//185 50//186 40//183 
f 33//188 43//189 51//190 41//187 
f 42//192 52//193 53//194 43//191 
f 44//196 54//197 52//198 42//195 
f 45//200 55//201 54//202 44//199 
f 46//204 56//205 55//206 45//203 
f 47//208 57//209 56//210 46//207 
f 48//212 58//213 57//214 47//211 
f 49//216 59//217 58//218 48//215 
f 50//220 60//221 59//222 49//219 
f 51//224 61//225 60//226 50//223 
f 43//228 53//229 61//230 51//227 
f 52//232 62//233 63//234 53//231 
f 54//236 64//237 62//238 52//235 
f 55//240 65//241 64//242 54//239 
f 56//244 66//245 65//246 55//243 
f 57//248 67//249 66//250 56//247 
f 58//252 68//253 67//254 57//251 
f 59//256 69//257 68//258 58//255 
f 60//260 70//261 69//262 59//259 
f 61//264 71//265 70//266 60//263 
f 53//268 63//269 71//270 61//267 
f 62//272 72//273 73//274 63//271 
f 64//276 74//277 72//278 62//275 
f 65//280 75//281 74//282 64//279 
f 66//284 76//285 75//286 65//283 
f 67//288 77//289 76//290 66//287 
f 68//292 78//293 77//294 67//291 
f 69//296 79//297 78//298 68//295 
f 70//300 80//301 79//302 69//299 
f 71//304 81//305 80//306 70//303 
f 63//308 73//309 81//310 71//307 
f 72//312 82//313 83//314 73//311 
f 74//316 84//317 82//318 72//315 
f 75//320 85//321 84//322 74//319 
f 76//324 86//325 85//326 75//323 
f 77//328 87//329 86//330 76//327 
f 78//332 88//333 87//334 77//331 
f 79//336 89//337 88//338 78//335 
f 80//340 90//341 89//342 79//339 
f 81//344 91//345 90//346 80//343 
f 73//348 83//349 91//350 81//347 
f 83//351 82//352 92//353 
f 82//354 84//355 92//356 
f 84//357 85//358 92//359 
f 85//360 86//361 92//362 
f 86//363 87//364 92//365 
f 87//366 88//367 92//368 
f 88//369 89//370 92//371 
f 89//372 90//373 92//374 
f 90//375 91//376 92//377 
f 91//378 83//379 92//380 
